<?xml version="1.0" standalone="no"?>
<!DOCTYPE svg PUBLIC "-//W3C//DTD SVG 20010904//EN"
 "http://www.w3.org/TR/2001/REC-SVG-20010904/DTD/svg10.dtd">
<svg version="1.0" xmlns="http://www.w3.org/2000/svg"
 width="3360.000000pt" height="2090.000000pt" viewBox="0 0 3360.000000 2090.000000"
 preserveAspectRatio="xMidYMid meet">

<g transform="translate(0.000000,2090.000000) scale(0.100000,-0.100000)"
fill="#000000" stroke="none">
<path d="M0 10450 l0 -10450 16800 0 16800 0 0 10450 0 10450 -16800 0 -16800
0 0 -10450z m16590 5694 c102 -102 193 -190 202 -195 14 -8 51 25 210 186 106
107 197 195 203 195 6 0 147 -137 315 -305 l305 -305 360 -2 360 -3 5 -290 5
-290 363 -3 c279 -2 362 -5 363 -15 1 -6 2 -202 3 -434 l1 -423 248 -247 c136
-137 247 -253 247 -258 0 -5 -91 -101 -202 -212 l-202 -203 257 -258 c141
-141 257 -262 257 -267 0 -6 -135 -145 -301 -311 l-301 -301 -3 -349 c-1 -192
-3 -352 -4 -356 0 -5 -158 -8 -349 -8 -263 0 -352 -3 -365 -12 -15 -12 -17
-48 -19 -363 l-3 -350 -352 -5 -353 -5 -255 -255 -255 -255 -259 259 c-224
223 -261 256 -277 248 -11 -6 -127 -119 -259 -251 -132 -133 -244 -241 -250
-241 -6 0 -123 113 -260 250 l-250 250 -442 0 -443 0 0 353 c0 193 -4 358 -8
364 -6 10 -78 13 -282 15 l-275 3 -5 367 -5 367 -300 301 c-165 165 -302 305
-304 311 -2 6 111 125 250 265 l253 254 -192 193 c-105 106 -192 197 -192 202
0 6 110 120 245 255 l245 245 2 440 3 440 285 5 285 5 5 285 5 285 440 3 440
2 305 305 c168 168 307 305 310 305 3 0 88 -84 190 -186z m287 -6620 c9 -24
-15 -34 -79 -34 -58 0 -162 -8 -488 -36 -171 -15 -573 -68 -605 -81 -12 -4
-15 -12 -10 -27 26 -82 36 -134 49 -273 9 -86 20 -161 25 -166 5 -5 16 -7 24
-4 18 7 175 194 281 335 52 69 83 102 96 102 36 0 21 -32 -67 -149 -160 -210
-282 -347 -313 -351 -58 -8 -68 12 -85 188 -26 262 -37 302 -87 328 -18 9 -28
22 -26 32 2 13 30 22 118 39 259 49 819 107 1073 112 72 1 89 -2 94 -15z m-37
-148 c0 -8 -17 -26 -37 -42 -107 -80 -284 -256 -271 -270 3 -3 39 4 79 16 92
25 95 25 123 -4 l22 -25 80 25 c86 26 129 30 140 13 10 -17 -12 -31 -78 -49
-35 -10 -94 -26 -131 -36 l-69 -19 -23 30 -24 29 -79 -23 c-93 -27 -126 -25
-130 6 -4 26 116 156 258 281 102 89 140 108 140 68z m400 -271 c10 -13 10
-19 -4 -34 -28 -31 1 -32 130 -4 164 35 212 39 220 19 4 -9 4 -19 1 -22 -7 -7
-276 -62 -344 -69 -69 -8 -128 6 -143 35 -16 30 -12 58 12 74 29 21 111 21
128 1z m-1231 -660 c154 -37 281 -159 337 -325 16 -47 19 -87 19 -280 0 -250
-6 -282 -71 -390 -82 -137 -209 -214 -374 -227 -253 -19 -461 143 -506 395
-16 91 -18 330 -4 422 32 203 162 356 343 405 69 18 177 18 256 0z m2754 0
c168 -44 299 -174 342 -340 21 -84 21 -446 0 -530 -45 -169 -197 -314 -364
-345 -230 -43 -432 54 -526 253 -46 95 -55 156 -55 357 0 201 9 262 54 357 58
121 167 215 286 247 72 19 191 20 263 1z m2818 5 c164 -31 299 -171 303 -314
l1 -51 -72 -3 -71 -3 -11 52 c-29 134 -118 202 -266 202 -156 0 -257 -83 -301
-248 -21 -76 -19 -425 2 -496 55 -184 194 -270 388 -239 74 12 134 37 166 72
18 20 20 35 20 149 0 92 -4 129 -13 137 -8 7 -67 13 -138 14 l-124 3 -3 49
c-2 32 1 52 10 57 7 5 104 9 216 9 155 0 202 -3 202 -12 0 -7 1 -109 2 -227
l2 -214 -44 -40 c-114 -101 -310 -149 -481 -117 -130 25 -266 125 -323 238
-49 97 -58 164 -54 407 4 191 7 227 25 276 85 231 305 348 564 299z m-10737
-25 c174 -45 295 -161 349 -330 19 -62 22 -92 22 -255 0 -164 -3 -193 -23
-257 -53 -169 -190 -295 -360 -332 -31 -6 -149 -11 -282 -11 l-230 0 0 600 0
600 233 0 c175 0 247 -4 291 -15z m1611 -45 l0 -55 -280 -3 c-208 -2 -281 -5
-287 -15 -13 -21 -10 -361 4 -375 9 -9 78 -12 250 -12 l239 0 -3 -57 -3 -58
-234 -3 c-152 -1 -239 -6 -248 -13 -10 -9 -13 -56 -13 -204 0 -107 3 -200 6
-209 5 -14 40 -16 290 -16 l284 0 6 -24 c3 -13 4 -38 2 -57 l-3 -34 -367 -3
-368 -2 0 600 0 600 363 -2 362 -3 0 -55z m625 -480 l5 -535 290 -5 290 -5 3
-57 3 -58 -376 0 -375 0 0 600 0 601 78 -3 77 -3 5 -535z m1631 512 c123 -49
190 -144 191 -273 2 -107 -25 -157 -122 -231 -32 -24 -33 -27 -15 -33 96 -32
159 -87 197 -170 32 -71 32 -198 -1 -273 -30 -66 -103 -133 -179 -164 -55 -22
-68 -23 -362 -23 l-305 0 -3 585 c-1 322 0 591 3 598 4 11 57 13 272 10 249
-3 272 -5 324 -26z m2774 -1 c81 -33 155 -107 178 -180 21 -67 22 -173 1 -233
-16 -49 -77 -119 -125 -144 -38 -19 -37 -30 9 -53 20 -10 49 -32 64 -48 49
-51 60 -95 68 -264 6 -135 10 -162 28 -193 12 -21 22 -41 22 -47 0 -5 -35 -9
-78 -9 -64 0 -82 4 -95 18 -24 26 -37 109 -37 234 0 151 -26 208 -115 249 -34
16 -66 19 -207 19 l-168 0 -2 -257 -3 -258 -77 -3 -78 -3 0 601 0 601 278 -3
c264 -3 280 -5 337 -27z m2277 -413 c3 -438 3 -444 26 -493 13 -27 35 -63 50
-78 109 -115 344 -107 446 14 62 73 60 64 66 549 l5 445 78 3 77 3 0 -425 c0
-277 -4 -444 -11 -478 -30 -138 -123 -240 -266 -289 -90 -31 -269 -34 -351 -6
-121 43 -212 129 -255 245 -21 55 -22 76 -25 491 -2 238 -1 439 2 447 4 10 25
14 80 14 l75 0 3 -442z m2836 170 l2 -268 295 0 295 0 0 270 0 271 78 -3 77
-3 0 -595 0 -595 -77 -3 -78 -3 0 266 0 265 -295 0 -295 0 -2 -262 -3 -263
-77 -3 -78 -3 0 601 0 601 78 -3 77 -3 3 -267z m-5757 -1362 c110 -21 188 -79
230 -171 23 -51 25 -111 3 -119 -24 -9 -73 -7 -95 4 -11 7 -19 21 -19 38 0 68
-79 140 -162 149 -108 11 -194 -39 -239 -140 -20 -45 -24 -72 -27 -194 -2 -83
1 -164 8 -197 15 -74 63 -144 120 -176 87 -49 265 -25 300 39 12 23 13 170 2
188 -5 8 -42 13 -102 15 l-95 3 -3 48 -3 47 165 0 166 0 0 -174 0 -174 -37
-32 c-20 -18 -62 -45 -93 -59 -50 -23 -67 -26 -175 -26 -142 0 -183 14 -266
92 -94 88 -119 165 -119 373 0 193 23 279 96 359 51 58 117 94 194 107 83 15
74 15 151 0z m1094 -8 c118 -29 218 -137 254 -273 6 -22 11 -107 11 -188 0
-122 -4 -158 -20 -208 -26 -77 -56 -124 -109 -172 -72 -65 -120 -81 -246 -81
-103 -1 -113 1 -163 28 -104 58 -170 148 -192 266 -5 29 -10 106 -10 170 0 64
5 141 10 170 43 227 235 345 465 288z m1035 1 c88 -22 175 -108 199 -196 17
-63 8 -74 -57 -71 l-55 3 -13 44 c-7 24 -23 54 -36 68 -73 80 -220 84 -287 7
-26 -29 -31 -43 -31 -84 0 -26 3 -56 6 -65 12 -29 88 -72 187 -104 118 -38
158 -58 213 -105 75 -64 101 -160 72 -258 -15 -50 -70 -107 -134 -138 -43 -22
-63 -25 -164 -25 -106 0 -119 2 -174 29 -32 16 -73 41 -91 57 -38 34 -78 119
-73 157 3 25 6 27 60 30 l57 3 12 -46 c22 -87 127 -145 240 -132 93 11 149 63
149 140 0 85 -42 123 -196 173 -59 19 -124 44 -146 55 -54 28 -113 83 -133
125 -19 41 -22 134 -6 178 52 134 223 200 401 155z m-4320 -404 c0 -223 1
-406 3 -407 1 -1 101 -4 222 -8 l220 -5 0 -45 0 -45 -285 0 -285 0 -3 445 c-1
245 0 451 3 458 3 8 26 12 65 12 l60 0 0 -405z m1150 385 c6 -10 24 -59 41
-107 69 -196 222 -632 245 -696 35 -99 35 -98 -38 -95 l-62 3 -36 105 c-19 58
-39 111 -43 118 -9 13 -313 18 -333 4 -6 -4 -26 -52 -44 -107 -18 -55 -37
-106 -43 -112 -11 -15 -113 -18 -121 -4 -5 8 12 62 63 201 61 168 98 272 151
420 56 159 96 265 106 282 3 4 27 8 54 8 39 0 52 -4 60 -20z m-1833 -1562 c-3
-13 -13 -68 -22 -123 -28 -158 -33 -175 -55 -175 -26 0 -25 16 0 166 27 155
27 154 57 154 21 0 24 -4 20 -22z m523 4 c0 -21 -18 -42 -37 -42 -8 0 -13 12
-13 30 0 25 4 30 25 30 17 0 25 -5 25 -18z m2978 -28 c-12 -56 -3 -69 37 -54
37 14 71 6 78 -19 4 -17 -16 -159 -28 -188 -7 -19 -45 -16 -45 4 0 9 5 45 11
81 9 51 9 66 -1 72 -25 16 -80 -20 -80 -51 0 -10 -5 -41 -11 -69 -8 -38 -15
-50 -29 -50 -10 0 -21 3 -23 8 -5 7 38 272 48 300 2 6 15 12 28 12 24 0 24 -1
15 -46z m376 24 c-10 -34 -36 -48 -49 -28 -13 21 6 50 31 50 22 0 24 -3 18
-22z m1786 -2 c0 -24 -23 -41 -41 -30 -10 6 -12 38 -2 47 3 4 15 7 25 7 12 0
18 -7 18 -24z m-5425 -36 c0 -16 8 -28 23 -35 29 -13 24 -39 -9 -43 -22 -3
-27 -10 -37 -61 -16 -78 -16 -81 13 -81 38 0 34 -36 -4 -42 -70 -10 -82 14
-61 123 9 44 8 54 -5 62 -20 11 -19 34 3 41 10 3 23 20 29 37 15 38 48 37 48
-1z m1393 -3 c2 -15 7 -27 11 -27 4 0 16 -6 27 -14 18 -14 17 -15 -18 -30 -34
-15 -38 -20 -45 -68 -11 -73 -11 -71 16 -78 37 -9 36 -28 -1 -38 -39 -10 -68
-5 -75 15 -3 8 0 46 6 85 10 64 10 72 -6 84 -17 13 -17 15 4 33 13 10 27 31
33 46 13 35 44 30 48 -8z m2797 3 c0 -15 9 -29 23 -36 37 -18 37 -23 -1 -39
-33 -14 -37 -19 -44 -67 -11 -73 -11 -71 17 -78 35 -8 31 -33 -6 -40 -71 -15
-87 14 -62 119 10 47 10 53 -8 66 -19 15 -19 15 3 34 13 10 27 31 33 46 13 34
45 31 45 -5z m957 -2 c2 -25 8 -34 26 -36 33 -5 27 -30 -10 -40 -30 -8 -33
-12 -43 -70 -7 -34 -9 -64 -7 -67 3 -3 16 -5 29 -5 34 0 26 -31 -9 -41 -35 -9
-65 -2 -72 18 -3 8 -1 47 5 86 10 65 10 72 -7 84 -18 14 -18 15 9 34 15 12 27
26 27 33 0 16 21 36 36 36 7 0 14 -15 16 -32z m-5648 -86 c-4 -26 -12 -74 -19
-107 l-12 -60 -62 -1 c-34 -1 -64 -4 -68 -7 -3 -4 -14 -2 -24 4 -22 12 -24 52
-6 148 12 63 24 78 51 68 11 -4 11 -19 -1 -83 -17 -90 -9 -105 42 -76 25 15
32 28 43 83 19 95 70 123 56 31z m1124 46 c9 -9 25 -8 68 2 52 13 57 12 70 -5
14 -19 13 -39 -10 -155 -9 -47 -15 -56 -35 -58 -23 -4 -24 -3 -16 50 5 29 9
69 9 88 1 32 -1 35 -24 32 -35 -3 -56 -33 -64 -89 -10 -71 -15 -83 -36 -83
-29 0 -31 13 -16 86 18 84 10 100 -37 80 -29 -11 -33 -19 -48 -87 -13 -63 -18
-74 -37 -77 -16 -2 -22 2 -22 15 0 28 29 183 36 195 3 5 20 7 38 5 17 -3 40
-2 51 3 29 12 59 12 73 -2z m487 2 c29 -11 29 -18 1 -157 l-11 -58 -50 -1
c-27 -1 -54 -3 -60 -4 -54 -13 -69 18 -51 111 11 57 20 78 40 96 29 25 85 31
131 13z m615 0 c61 -33 40 -94 -42 -125 -33 -13 -54 -28 -56 -39 -4 -17 1 -18
51 -12 56 6 72 0 59 -21 -10 -16 -87 -32 -115 -26 -43 11 -50 23 -43 85 4 32
12 71 18 88 17 49 83 74 128 50z m549 1 c21 -14 5 -44 -19 -36 -27 8 -60 -3
-60 -21 0 -7 18 -26 40 -40 44 -29 52 -62 25 -100 -26 -38 -126 -39 -133 -1
-3 14 5 17 42 17 62 0 67 16 17 59 -47 41 -54 78 -21 111 21 21 83 27 109 11z
m346 -13 c26 -20 27 -25 21 -80 -7 -75 -29 -116 -64 -124 -15 -3 -32 -7 -39
-9 -26 -8 -80 16 -91 40 -14 30 0 116 24 152 30 46 104 57 149 21z m379 3 c16
-18 17 -26 5 -92 -16 -91 -38 -118 -99 -123 -25 -2 -48 -4 -52 -5 -3 -1 -9
-19 -13 -40 -7 -40 -30 -60 -48 -42 -6 6 0 62 17 153 14 78 26 147 26 152 0 5
17 6 38 3 20 -4 44 -2 52 3 24 16 56 11 74 -9z m932 4 c16 -13 17 -16 4 -24
-8 -6 -25 -8 -38 -4 -22 5 -52 -11 -52 -28 0 -5 18 -20 40 -34 34 -21 40 -31
40 -59 0 -46 -29 -69 -85 -69 -47 0 -72 13 -61 32 4 6 27 11 52 11 37 0 44 3
44 20 0 12 -12 26 -30 35 -54 28 -64 72 -25 110 28 29 80 33 111 10z m599 -10
c0 -15 -7 -20 -30 -20 -43 -1 -52 -9 -65 -65 -16 -67 -10 -80 40 -80 28 0 40
-4 40 -14 0 -28 -101 -40 -125 -14 -18 18 -20 35 -11 88 18 102 45 131 116
127 28 -2 35 -6 35 -22z m353 11 c3 -4 0 -43 -7 -89 -20 -131 -17 -126 -64
-126 -23 1 -57 0 -74 -1 -52 -2 -56 5 -49 82 7 79 27 125 59 138 22 10 124 6
135 -4z m866 -7 c20 -16 26 -29 26 -58 0 -48 -17 -100 -42 -127 -39 -44 -137
-35 -157 14 -14 34 2 127 27 155 36 41 105 49 146 16z m386 6 c10 -12 10 -32
0 -97 -15 -97 -24 -118 -50 -118 -23 0 -24 3 -8 85 15 82 9 98 -32 84 -38 -14
-39 -15 -54 -97 -10 -57 -15 -67 -34 -70 -26 -4 -28 16 -8 123 16 89 21 98 55
90 15 -3 38 -1 52 4 36 14 65 13 79 -4z m-5870 -17 c-1 -13 -9 -61 -18 -108
-15 -74 -20 -85 -39 -88 -28 -4 -28 3 -8 116 16 95 19 102 46 102 13 0 19 -7
19 -22z m3360 15 c0 -9 -27 -157 -35 -190 -3 -14 -13 -23 -25 -23 -25 0 -26
25 -5 133 8 43 15 81 15 83 0 2 11 4 25 4 14 0 25 -3 25 -7z m1790 4 c0 -1 -9
-49 -20 -107 -11 -58 -20 -106 -20 -107 0 -7 -39 -2 -43 5 -5 6 14 134 28 190
4 15 13 22 30 22 14 0 25 -1 25 -3z m-6812 -184 c-2 -20 -9 -29 -25 -31 -18
-3 -23 1 -23 21 0 29 7 37 32 37 15 0 19 -6 16 -27z m252 10 c0 -28 -16 -45
-35 -41 -10 1 -18 6 -17 11 1 4 2 16 2 27 0 15 7 20 25 20 17 0 25 -5 25 -17z
m250 3 c0 -28 -12 -46 -30 -46 -24 0 -30 11 -23 38 6 25 53 32 53 8z"/>
<path d="M16172 15957 c-122 -123 -222 -226 -222 -230 0 -4 143 -7 318 -7
l317 0 68 65 c37 36 67 71 67 78 0 15 -301 317 -315 317 -6 0 -111 -100 -233
-223z"/>
<path d="M17033 16025 c-84 -85 -153 -157 -153 -160 0 -4 30 -38 67 -76 l66
-69 324 0 c177 0 323 3 323 8 0 14 -446 452 -460 452 -8 -1 -84 -70 -167 -155z"/>
<path d="M16768 15758 c-27 -33 -23 -38 37 -38 30 0 55 4 55 8 0 14 -45 52
-61 52 -8 0 -22 -10 -31 -22z"/>
<path d="M15012 15602 c-9 -7 -12 -60 -10 -233 l3 -224 100 -3 100 -2 224 224
c131 131 221 228 217 235 -8 13 -613 16 -634 3z"/>
<path d="M15830 15603 c-21 -7 -450 -436 -450 -449 0 -8 60 -13 188 -17 164
-5 332 -25 447 -53 17 -4 30 9 70 68 80 116 195 256 290 352 67 67 85 90 74
97 -15 9 -593 11 -619 2z"/>
<path d="M16620 15603 c-21 -8 -239 -233 -309 -318 -94 -114 -163 -215 -158
-229 3 -7 36 -23 74 -35 151 -50 378 -173 545 -296 l37 -27 43 35 c133 107
375 231 591 301 27 9 21 28 -39 112 -88 122 -171 218 -302 347 l-119 117 -174
-1 c-96 0 -181 -3 -189 -6z"/>
<path d="M17161 15601 c-12 -8 8 -33 95 -123 104 -109 212 -243 285 -356 27
-42 38 -51 56 -47 117 28 283 47 451 52 111 3 192 10 192 15 0 6 -101 112
-225 236 l-225 227 -308 3 c-179 1 -313 -2 -321 -7z"/>
<path d="M17970 15600 c-12 -8 32 -56 216 -241 167 -167 236 -230 248 -226 14
6 16 35 16 236 0 199 -2 230 -16 235 -26 10 -448 6 -464 -4z"/>
<path d="M14437 15034 c-4 -4 -7 -151 -7 -326 0 -249 3 -318 13 -318 7 0 112
100 235 223 l223 223 -3 99 -3 100 -226 3 c-124 1 -228 -1 -232 -4z"/>
<path d="M15000 14995 c0 -25 2 -45 5 -45 9 0 85 72 85 81 0 5 -20 9 -45 9
l-45 0 0 -45z"/>
<path d="M15129 14912 l-132 -130 6 -254 c5 -183 11 -280 25 -350 10 -54 21
-100 24 -104 3 -3 24 4 46 15 144 74 352 140 543 174 l123 22 17 105 c10 58
27 141 39 185 22 85 96 278 137 358 l23 47 -27 11 c-65 24 -230 41 -456 46
l-237 5 -131 -130z"/>
<path d="M17875 15019 c-100 -10 -205 -29 -227 -41 -17 -8 -16 -13 11 -66 69
-138 139 -358 162 -507 23 -151 13 -137 113 -152 111 -16 248 -52 371 -98 53
-20 99 -34 102 -31 19 19 35 213 40 496 l5 316 -45 47 -46 47 -203 -1 c-112
-1 -239 -5 -283 -10z"/>
<path d="M18553 15014 c-4 -12 79 -101 298 -320 167 -167 307 -303 312 -301 5
1 10 415 7 627 0 6 -109 10 -305 10 -271 0 -306 -2 -312 -16z"/>
<path d="M16034 14857 c-74 -157 -154 -435 -154 -535 l0 -30 108 -7 c114 -7
253 -27 341 -50 30 -8 58 -12 62 -10 4 3 43 55 87 117 44 62 114 150 156 195
42 44 76 85 76 90 0 21 -195 150 -325 216 -86 43 -257 107 -285 107 -17 0 -30
-19 -66 -93z"/>
<path d="M17421 14919 c-46 -15 -135 -53 -197 -83 -109 -52 -297 -169 -323
-200 -10 -12 -3 -25 49 -80 73 -76 167 -197 217 -278 20 -32 41 -58 47 -58 6
0 40 7 75 15 82 20 297 45 378 45 76 0 73 -9 38 165 -41 201 -158 508 -192
504 -5 0 -46 -14 -92 -30z"/>
<path d="M18550 14618 c0 -122 -7 -257 -16 -338 -9 -74 -18 -153 -20 -175 l-5
-40 87 -50 c170 -98 333 -225 484 -379 36 -36 72 -66 80 -66 13 0 15 34 13
262 -2 145 -3 291 -3 325 l0 61 -300 301 c-165 166 -305 301 -310 301 -6 0
-10 -74 -10 -202z"/>
<path d="M14652 14435 l-222 -226 0 -305 c0 -254 2 -305 14 -302 7 2 59 47
115 100 110 105 228 199 329 263 l64 40 -6 45 c-3 25 -13 88 -21 140 -9 52
-18 179 -22 283 -4 127 -10 187 -17 187 -6 0 -111 -101 -234 -225z"/>
<path d="M16731 14482 c-111 -116 -229 -280 -217 -301 3 -5 18 -12 33 -15 16
-4 79 -32 140 -62 l113 -55 113 55 c62 30 125 58 140 61 37 10 41 19 22 55
-26 50 -144 200 -211 270 l-64 65 -69 -73z"/>
<path d="M15873 14164 c-19 -49 20 -429 47 -458 5 -4 55 10 112 32 56 22 123
46 147 53 l44 14 32 95 c17 52 42 119 54 147 13 29 21 58 18 66 -8 22 -273 67
-400 67 -34 0 -49 -4 -54 -16z"/>
<path d="M15675 14163 c-74 -11 -218 -46 -305 -75 -117 -38 -278 -112 -285
-131 -8 -18 47 -170 105 -293 54 -115 194 -334 214 -334 3 0 50 39 104 86 53
47 145 118 203 156 l106 70 -9 37 c-28 116 -40 202 -46 336 l-7 150 -25 1
c-14 1 -38 -1 -55 -3z"/>
<path d="M17540 14163 c-48 -5 -155 -21 -217 -34 -62 -12 -65 -20 -29 -101 14
-30 36 -95 51 -144 37 -123 46 -144 59 -144 6 0 62 -25 123 -55 62 -30 117
-55 122 -55 18 0 30 35 55 161 16 80 26 168 28 249 l3 125 -80 1 c-44 1 -96
-1 -115 -3z"/>
<path d="M17842 14003 c-12 -156 -28 -252 -62 -370 -11 -40 -20 -74 -20 -77 0
-2 35 -31 78 -64 42 -34 104 -86 137 -116 46 -42 63 -52 73 -43 31 25 165 241
213 341 44 94 119 299 119 326 0 35 -380 150 -494 150 l-32 0 -12 -147z"/>
<path d="M19290 14078 c-5 -197 2 -644 10 -652 7 -7 59 38 170 149 88 88 160
165 160 171 0 10 -326 344 -336 344 -2 0 -4 -6 -4 -12z"/>
<path d="M14138 13920 c-87 -87 -158 -165 -158 -172 0 -7 68 -81 150 -163 128
-128 153 -148 168 -139 15 10 17 39 20 323 2 246 0 311 -10 310 -7 0 -84 -72
-170 -159z"/>
<path d="M16446 14073 c-16 -17 -86 -191 -86 -215 0 -22 30 -23 116 -6 46 9
75 24 132 67 39 30 72 57 72 61 0 7 -49 32 -144 71 -75 32 -79 33 -90 22z"/>
<path d="M17120 14073 c-59 -21 -200 -87 -200 -93 0 -5 40 -40 89 -79 76 -61
98 -73 159 -88 40 -9 75 -14 79 -10 14 15 -85 278 -104 276 -4 0 -15 -3 -23
-6z"/>
<path d="M18475 13948 c-2 -7 -20 -62 -40 -123 -59 -180 -172 -394 -288 -546
-34 -45 -34 -53 2 -98 86 -109 207 -324 256 -456 13 -33 30 -61 38 -63 21 -4
224 135 331 228 50 43 161 150 246 237 l156 158 -4 61 -4 61 -151 150 c-167
164 -244 228 -387 319 -139 89 -148 93 -155 72z"/>
<path d="M16765 13894 c-21 -22 -5 -34 46 -34 47 0 54 8 25 31 -30 23 -50 24
-71 3z"/>
<path d="M14904 13857 c-118 -82 -201 -153 -337 -287 l-137 -135 0 -74 0 -75
188 -189 c180 -181 394 -363 413 -351 5 3 32 53 59 112 44 92 156 272 221 353
l20 25 -75 107 c-104 149 -217 382 -261 535 -9 31 -21 28 -91 -21z"/>
<path d="M16615 13753 c-34 -3 -52 -16 -118 -81 -77 -76 -176 -191 -210 -244
-13 -21 -17 -50 -17 -119 0 -79 13 -227 26 -295 5 -28 150 -172 247 -245 l78
-59 127 0 c246 1 266 9 442 177 120 115 116 104 126 355 l7 167 -57 77 c-62
81 -189 220 -216 234 -38 20 -343 44 -435 33z"/>
<path d="M16328 13709 c-10 -5 -18 -22 -18 -36 l0 -27 30 29 c17 16 30 32 30
37 0 11 -21 10 -42 -3z"/>
<path d="M16065 13634 c-49 -19 -94 -39 -100 -45 -17 -17 87 -269 111 -269 6
0 28 28 49 63 28 48 39 78 45 132 5 39 12 89 16 113 8 53 2 53 -121 6z"/>
<path d="M17414 13578 c3 -13 8 -47 11 -77 6 -54 66 -174 93 -185 13 -6 92
148 92 180 0 14 -23 31 -82 62 -95 49 -121 53 -114 20z"/>
<path d="M15770 13482 c-126 -84 -280 -219 -280 -245 0 -18 122 -135 209 -200
89 -66 198 -130 213 -124 7 2 26 46 42 98 16 51 35 104 43 118 21 42 16 61
-46 182 -32 63 -66 135 -76 162 -11 30 -23 47 -34 46 -9 0 -41 -17 -71 -37z"/>
<path d="M17645 13303 l-67 -128 21 -43 c12 -23 21 -47 21 -51 0 -5 9 -30 20
-56 l20 -46 62 43 c74 52 228 195 228 213 0 20 -203 195 -227 195 -6 0 -41
-57 -78 -127z"/>
<path d="M14067 13072 c-114 -114 -207 -214 -207 -222 0 -15 438 -460 453
-460 4 0 7 195 7 433 0 435 -2 457 -35 457 -5 0 -104 -93 -218 -208z"/>
<path d="M19290 13218 c-3 -198 1 -842 4 -846 3 -2 107 98 232 223 l227 227
-219 219 c-120 120 -224 219 -231 219 -8 0 -13 -15 -13 -42z"/>
<path d="M15367 13108 c-79 -97 -237 -378 -237 -423 0 -21 239 -136 370 -179
104 -33 216 -59 316 -71 l51 -6 6 113 c4 62 10 142 13 178 l6 65 -89 53 c-116
69 -240 163 -326 246 -37 36 -69 66 -71 66 -3 0 -20 -19 -39 -42z"/>
<path d="M17944 13060 c-48 -45 -124 -106 -168 -137 -45 -31 -83 -58 -84 -59
-2 -1 3 -44 12 -96 9 -51 19 -147 22 -213 4 -66 11 -123 16 -126 9 -6 126 11
209 30 159 36 379 124 379 151 0 50 -128 306 -216 431 -80 114 -69 113 -170
19z"/>
<path d="M14437 13113 c-4 -3 -7 -195 -7 -427 l0 -420 217 -218 c120 -120 222
-217 228 -215 6 2 13 74 16 178 7 188 34 374 74 511 14 46 25 90 25 99 0 9
-46 51 -102 95 -57 43 -178 152 -269 241 -91 90 -168 163 -171 163 -2 0 -8 -3
-11 -7z"/>
<path d="M18990 12957 c-169 -166 -305 -278 -443 -363 -64 -39 -78 -52 -74
-68 63 -274 77 -399 77 -683 0 -142 3 -203 11 -203 15 0 607 593 609 611 6 42
-1 869 -7 869 -5 0 -82 -74 -173 -163z"/>
<path d="M16077 13018 c-7 -18 -21 -62 -31 -97 -22 -78 -20 -80 86 -115 94
-32 102 -32 95 -3 -30 124 -40 152 -74 196 -21 28 -44 50 -50 50 -7 1 -19 -14
-26 -31z"/>
<path d="M17450 13004 c-19 -26 -40 -54 -46 -63 -16 -22 -27 -101 -14 -101 18
0 136 58 148 72 16 19 -16 132 -38 135 -8 2 -31 -18 -50 -43z"/>
<path d="M17465 12748 c-49 -22 -101 -45 -114 -51 -16 -8 -32 -34 -51 -82 -15
-38 -36 -89 -48 -112 -16 -31 -19 -43 -9 -50 14 -11 142 -29 268 -38 116 -9
114 -12 100 162 -14 166 -22 207 -41 210 -8 1 -55 -16 -105 -39z"/>
<path d="M16004 12719 c-4 -7 -9 -77 -12 -155 l-5 -144 84 0 c84 0 275 23 287
34 3 3 -4 25 -16 49 -11 23 -30 63 -41 90 -23 52 -22 52 -166 97 -55 17 -105
33 -112 36 -6 3 -15 0 -19 -7z"/>
<path d="M17081 12628 c-42 -9 -117 -51 -133 -73 -11 -15 1 -23 82 -50 71 -24
76 -25 88 -8 17 23 62 118 62 132 0 13 -39 13 -99 -1z"/>
<path d="M16420 12606 c0 -12 52 -111 62 -117 15 -9 168 43 168 57 0 27 -67
54 -149 61 -45 3 -81 3 -81 -1z"/>
<path d="M15081 12552 c-12 -22 -35 -113 -55 -212 -26 -133 -36 -251 -36 -445
l0 -191 59 -58 59 -59 324 6 c259 4 344 9 428 25 126 23 187 39 195 51 3 5
-11 47 -31 93 -61 143 -102 281 -129 443 -9 55 -18 102 -20 103 -2 2 -54 12
-117 23 -200 34 -409 106 -580 198 -42 23 -78 41 -81 41 -4 0 -11 -8 -16 -18z"/>
<path d="M18304 12465 c-143 -64 -335 -121 -494 -145 -41 -6 -78 -14 -81 -18
-4 -4 -14 -54 -23 -112 -20 -128 -64 -281 -116 -410 -22 -53 -40 -102 -40
-108 0 -6 12 -14 28 -18 15 -3 41 -10 57 -15 100 -29 235 -41 518 -46 l297 -5
0 214 c0 118 -5 264 -11 324 -17 177 -54 355 -75 360 -5 2 -32 -8 -60 -21z"/>
<path d="M16725 12446 c-28 -13 -75 -31 -105 -41 -30 -9 -59 -21 -64 -26 -20
-18 207 -289 244 -289 26 0 240 249 240 280 0 9 -230 100 -251 99 -8 0 -37
-10 -64 -23z"/>
<path d="M16320 12328 c-25 -5 -106 -12 -180 -16 l-135 -7 2 -63 c3 -111 60
-316 129 -471 24 -52 38 -72 48 -68 183 70 339 155 464 249 28 22 52 46 52 52
0 7 -19 30 -41 51 -37 35 -161 188 -212 260 -20 27 -46 30 -127 13z"/>
<path d="M17119 12278 c-46 -68 -132 -172 -191 -232 -21 -21 -38 -42 -38 -46
0 -11 178 -133 262 -179 95 -52 268 -123 284 -117 16 6 86 189 119 310 27 98
56 265 49 277 -2 4 -59 10 -126 14 -68 3 -159 13 -203 21 -44 7 -88 14 -97 14
-10 0 -35 -26 -59 -62z"/>
<path d="M14434 12077 c-2 -7 -3 -118 -2 -247 l3 -235 222 -3 c216 -2 222 -2
228 18 4 12 0 31 -9 45 -18 27 -422 435 -431 435 -3 0 -8 -6 -11 -13z"/>
<path d="M18920 11833 l-235 -238 239 -3 c131 -1 241 -1 243 2 4 3 5 195 4
404 -1 39 -5 72 -9 72 -4 0 -113 -107 -242 -237z"/>
<path d="M16775 11910 c-3 -5 -60 -46 -126 -90 -115 -77 -254 -150 -365 -191
-29 -11 -56 -24 -58 -28 -6 -10 101 -175 171 -264 66 -85 392 -417 409 -417
20 0 358 353 430 450 89 120 148 216 140 229 -3 5 -28 17 -54 27 -142 52 -301
138 -439 236 -83 59 -97 65 -108 48z"/>
<path d="M16020 11549 c-166 -42 -251 -51 -522 -56 -191 -4 -268 -9 -268 -17
0 -6 134 -145 298 -309 l297 -297 428 0 c323 0 427 3 427 12 0 6 -71 84 -158
172 -168 171 -268 292 -353 431 -28 47 -57 85 -63 84 -6 -1 -45 -10 -86 -20z"/>
<path d="M17413 11446 c-103 -156 -161 -225 -345 -412 -81 -83 -148 -154 -148
-157 0 -4 199 -7 442 -7 l442 0 300 301 c169 170 295 304 290 309 -5 4 -133
10 -284 13 -178 3 -305 11 -360 20 -80 14 -206 42 -240 52 -11 4 -40 -32 -97
-119z"/>
<path d="M14995 11477 c-3 -7 -4 -145 -3 -307 l3 -295 328 -3 c227 -1 328 1
325 8 -2 6 -138 146 -303 310 -296 297 -335 328 -350 287z"/>
<path d="M18199 11112 l-234 -237 230 -3 c126 -1 235 0 242 2 10 4 13 58 13
235 0 126 -4 232 -8 235 -5 3 -114 -102 -243 -232z"/>
<path d="M15950 10753 c0 -11 333 -343 345 -343 12 0 345 332 345 343 0 4
-155 7 -345 7 -190 0 -345 -3 -345 -7z"/>
<path d="M16972 10750 c5 -17 341 -350 353 -350 15 0 345 332 345 348 0 9 -78
12 -351 12 -223 0 -349 -4 -347 -10z"/>
<path d="M15763 8309 c-73 -28 -144 -108 -175 -196 -21 -63 -23 -84 -23 -273
0 -189 2 -210 23 -272 27 -78 91 -156 156 -191 34 -18 57 -22 136 -22 113 1
166 22 229 90 88 96 105 167 99 431 -4 169 -7 195 -28 249 -32 82 -115 164
-189 188 -71 23 -163 21 -228 -4z"/>
<path d="M18526 8314 c-85 -31 -149 -104 -185 -212 -18 -54 -21 -86 -21 -261
0 -172 3 -208 20 -265 26 -84 87 -161 155 -196 43 -22 62 -25 145 -25 86 0
100 3 148 30 96 53 157 148 173 273 12 93 11 294 -2 372 -30 187 -154 301
-327 299 -37 0 -85 -7 -106 -15z"/>
<path d="M10480 7840 l0 -482 158 4 c147 3 161 5 216 30 101 48 173 146 196
267 15 83 13 317 -5 384 -30 117 -95 200 -193 245 -52 24 -70 27 -214 30
l-158 4 0 -482z"/>
<path d="M14275 8308 c-3 -7 -4 -95 -3 -193 l3 -180 155 -3 c162 -3 213 6 257
46 70 64 81 191 22 266 -46 58 -89 70 -266 74 -132 3 -164 1 -168 -10z"/>
<path d="M14282 7802 c-9 -6 -12 -58 -10 -223 l3 -214 184 -3 c217 -3 259 6
315 68 60 67 71 171 28 257 -25 48 -46 67 -107 95 -45 20 -68 23 -225 26 -96
1 -181 -1 -188 -6z"/>
<path d="M17030 8106 c0 -131 4 -216 10 -218 5 -1 85 -1 177 2 156 5 171 7
213 30 64 36 90 86 90 178 0 88 -16 129 -65 170 -51 42 -107 52 -280 52 l-145
0 0 -214z"/>
<path d="M17785 6700 c-76 -12 -124 -49 -166 -130 -23 -42 -24 -55 -24 -225 0
-167 2 -184 23 -230 48 -103 107 -139 223 -133 68 3 83 7 121 34 28 21 54 52
73 90 l30 58 0 176 0 176 -30 59 c-49 96 -139 141 -250 125z"/>
<path d="M15706 6513 c-15 -43 -40 -114 -56 -158 -40 -113 -43 -125 -31 -126
99 -5 236 1 239 10 5 14 -109 351 -119 351 -3 0 -19 -35 -33 -77z"/>
<path d="M15221 5093 c-16 -13 -24 -33 -28 -75 -5 -52 -4 -58 13 -58 10 0 27
6 36 14 36 27 52 119 22 130 -21 8 -19 8 -43 -11z"/>
<path d="M15862 5098 c-6 -6 -12 -21 -12 -31 0 -15 5 -18 23 -13 12 3 26 6 30
6 5 0 7 10 5 22 -3 26 -28 34 -46 16z"/>
<path d="M16730 5092 c-25 -20 -42 -92 -28 -116 13 -23 65 -21 78 3 5 11 11
41 13 66 2 41 -1 48 -20 56 -16 6 -28 3 -43 -9z"/>
<path d="M17097 5082 c-17 -19 -39 -107 -29 -117 10 -10 60 -5 70 8 12 15 30
98 24 115 -6 18 -47 15 -65 -6z"/>
<path d="M18970 5090 c-11 -11 -20 -28 -20 -37 0 -10 -3 -35 -6 -55 -6 -33 -4
-38 12 -38 36 0 62 28 72 77 15 70 -15 96 -58 53z"/>
<path d="M19863 5097 c-16 -7 -25 -24 -33 -60 -12 -58 -3 -77 41 -77 35 0 46
20 51 84 2 41 0 49 -17 56 -11 4 -30 3 -42 -3z"/>
</g>
</svg>
