<svg width="20" height="20" viewBox="0 0 20 20" fill="none" xmlns="http://www.w3.org/2000/svg">
<path fill-rule="evenodd" clip-rule="evenodd" d="M1.56332 5.88227C3.04309 2.31774 6.52478 -0.0040403 10.3843 5.27842e-06C12.9135 3.88598e-06 15.339 1.00543 17.1265 2.79481C18.914 4.5842 19.9169 7.01076 19.9143 9.54001C19.9143 13.3995 17.5888 16.8787 14.0227 18.3548C10.4567 19.8308 6.35256 19.0128 3.62493 16.2823C0.897295 13.5518 0.0835628 9.4468 1.56332 5.88227ZM17.8643 12.44C18.2134 11.5133 18.3897 10.5303 18.3843 9.54C18.4067 7.7187 17.807 5.94425 16.6843 4.51001C16.2343 5.26001 15.3843 6.38001 14.3343 6.38001C13.9303 6.34753 13.5238 6.38818 13.1343 6.50001V6.61001C13.1343 6.79001 13.6243 7.28001 13.8843 7.54001C14.5318 8.02285 14.9629 8.74143 15.0843 9.54C15.0843 11.14 15.2443 11.63 15.3843 11.75C16.2487 11.8118 17.0921 12.0465 17.8643 12.44ZM2.38426 9.54C2.37517 7.76105 2.95928 6.02982 4.04426 4.62001C4.32761 5.13679 4.87504 5.45291 5.46426 5.44001C6.2734 5.84799 6.98861 6.42016 7.56426 7.12001C7.14072 7.38043 6.75679 7.70037 6.42426 8.07C6.39339 8.09973 6.35979 8.13245 6.32418 8.16713C6.04831 8.43576 5.65254 8.82115 5.48426 8.83C5.02129 8.81601 4.57307 8.99378 4.24555 9.3213C3.91803 9.64882 3.74026 10.097 3.75426 10.56C3.7557 10.6746 3.78305 10.7874 3.83426 10.89L4.73426 12.69C4.74574 13.7253 4.91087 14.7532 5.22426 15.74C3.40004 14.2005 2.35855 11.9269 2.38426 9.54ZM7.65426 17.06C8.5294 17.3776 9.45326 17.5401 10.3843 17.54V17.57C13.1365 17.5885 15.705 16.1909 17.1843 13.87C16.5811 13.5779 15.9371 13.379 15.2743 13.28C13.5443 13.28 13.5443 10.8 13.5443 9.6C13.5443 9.41877 13.0985 8.9737 12.823 8.69869C12.8097 8.68538 12.7967 8.67247 12.7843 8.66C12.1413 8.17462 11.7141 7.45664 11.5943 6.66001C11.5943 4.93001 13.3543 4.93001 14.2943 4.93001C14.5543 4.92001 15.1743 4.18001 15.5543 3.44001C12.589 0.929869 8.24895 0.912998 5.26426 3.40001C5.2794 3.48601 5.2794 3.574 5.26426 3.66001C5.27426 3.90001 5.38426 3.90001 5.49426 3.90001C6.69426 3.90001 9.38426 6.34001 9.42426 7.48001C9.42585 7.73708 9.31743 7.98257 9.12635 8.15454C8.93526 8.32652 8.67975 8.40857 8.42426 8.38C8.24426 8.39001 7.75426 8.88 7.49426 9.14001C7.0078 9.78352 6.29099 10.2136 5.49426 10.34C5.41426 10.34 5.29426 10.34 5.29426 10.44L6.16426 12.11C6.21547 12.2126 6.24282 12.3254 6.24426 12.44C6.24426 13.53 6.48426 15.3 7.00426 15.83C7.36707 16.1443 7.59897 16.5832 7.65426 17.06Z" fill="#5C0632"/>
</svg>
