<svg viewBox="0 0 170 50" fill="currentColor" xmlns="http://www.w3.org/2000/svg">
<path d="M14.4732 20.9545L13.6332 21.1465C13.1532 19.6345 12.2412 17.8585 10.2972 17.8585C8.95323 17.8585 7.96923 18.8425 7.96923 20.2345C7.96923 21.5545 8.83323 22.2985 10.9452 23.3785C13.4652 24.6025 15.1932 25.9465 15.1932 28.3225C15.1932 31.0585 12.8652 33.1945 9.36123 33.1945C8.49723 33.1945 7.65723 33.0745 6.93723 32.8585C6.26523 32.6665 5.80923 32.4745 5.49723 32.3305C5.25723 31.7305 4.94523 29.7145 4.77723 28.2745L5.61723 27.9865C6.09723 29.5225 7.51323 32.2345 9.81723 32.2345C11.2812 32.2345 12.2172 31.2265 12.2172 29.6905C12.2172 28.2745 11.1612 27.3865 9.36123 26.4265C6.91323 25.1785 5.18523 23.8825 5.18523 21.5785C5.18523 18.9385 7.27323 16.8745 10.6812 16.8745C12.2172 16.8745 13.5852 17.3545 14.0172 17.4985C14.1132 18.3865 14.2812 19.4665 14.4732 20.9545ZM32.36 22.2265V22.9945C31.208 23.1865 31.04 23.3785 30.536 24.6265C29.672 26.8585 28.664 29.7385 27.464 33.0985H26.552C25.616 30.8425 24.632 28.5865 23.744 26.4025C22.832 28.6345 21.992 30.8185 21.08 33.0985H20.168C19.208 30.1465 18.176 27.1945 17.288 24.5065C16.904 23.3545 16.664 23.1145 15.656 22.9945V22.2265H21.584V22.9945C20.192 23.2105 20.048 23.4265 20.312 24.2425C20.792 25.7785 21.272 27.4345 21.728 28.9225H21.776C22.616 26.8345 23.408 24.6265 24.272 22.3465H25.208C26.072 24.5545 27.008 26.7385 27.944 28.9705H27.992C28.352 27.8425 29.096 25.4425 29.336 24.4105C29.552 23.4985 29.432 23.2105 27.944 22.9945V22.2265H32.36ZM35.8 20.4265C34.912 20.4265 34.12 19.6585 34.12 18.7465C34.12 17.7865 34.912 17.0665 35.824 17.0665C36.784 17.0665 37.528 17.7865 37.528 18.7465C37.528 19.6585 36.784 20.4265 35.8 20.4265ZM39.088 32.8345H32.92V32.0665C34.312 31.8985 34.456 31.8025 34.456 30.0985V25.3465C34.456 23.7625 34.288 23.6905 33.136 23.4985V22.8025C34.6 22.6345 36.184 22.3225 37.528 21.9385V30.0985C37.528 31.7545 37.648 31.8985 39.088 32.0665V32.8345ZM54.3982 31.9465L52.3822 32.8585C51.9742 33.0265 51.5902 33.1225 51.4222 33.1225C49.5742 33.1225 48.4702 32.2585 48.4702 30.0985V23.3785H44.6302V30.4105C44.6302 31.7785 44.7502 31.8985 46.1182 32.0425V32.8345H40.0222V32.0425C41.4382 31.8745 41.5582 31.7785 41.5582 30.4105V23.3785H39.9262L39.8062 23.0905L40.5502 22.2265H41.5582V21.7945C41.5582 21.1945 41.6782 20.5945 41.8942 19.9945C42.0622 19.4665 42.5662 18.3385 43.9342 17.2585C44.8462 16.4905 45.7822 16.1065 46.8622 15.9625C47.9662 16.0105 48.6622 16.2985 49.1182 16.7545C49.4542 17.0905 49.4782 17.4265 49.3102 17.7625C49.2142 18.0265 48.9022 18.4105 48.5182 18.6745C48.2062 18.8905 47.9662 18.8905 47.7262 18.6745C47.1502 18.0745 46.1182 17.3785 45.4702 17.3785C45.0382 17.3785 44.7982 17.6425 44.6782 18.0745C44.5342 18.5545 44.4862 19.5385 44.6062 21.4825L44.6302 22.2265H48.4702V20.7145L51.2062 18.8425L51.5422 19.0105V22.2265H53.9422C54.2062 22.4905 54.1582 23.1865 53.7502 23.3785H51.5422V29.2345C51.5422 31.1065 52.4062 31.4425 52.8622 31.4425C53.2462 31.4425 53.7262 31.3225 54.1582 31.1545L54.3982 31.9465ZM78.8474 17.2585L78.6794 17.9305C77.1194 18.1465 76.9754 18.2425 75.9674 20.1865C75.0074 22.0585 72.9674 26.4025 69.8714 33.0985H69.0554L67.1354 21.3865H67.0634L61.4234 33.0985H60.6074L59.1434 20.2345C58.9274 18.2185 58.8074 18.0985 57.1994 17.9305L57.3434 17.2585H62.9594L62.7914 17.9305L62.1914 18.0265C61.2554 18.1705 61.1114 18.2905 61.2314 19.6105L62.2394 29.3545H62.2874L67.8794 17.5225H68.6474L70.6154 29.4025H70.6634C72.1514 26.1865 74.0954 21.9865 74.9834 19.6825C75.4874 18.3625 75.3434 18.1705 74.1194 18.0265L73.5194 17.9305L73.6874 17.2585H78.8474ZM81.5922 17.4265C82.2882 17.4265 82.6242 17.9545 82.6242 18.5545C82.6482 19.3465 82.0482 20.0425 81.2562 20.0425C80.6562 20.0425 80.2242 19.5865 80.2242 18.9145C80.2002 18.2665 80.7042 17.4265 81.5922 17.4265ZM81.7362 30.1465L82.0722 30.6985C81.1122 31.8265 79.2642 33.1225 78.4482 33.1225C77.9442 33.1225 77.5602 32.7145 78.0642 30.7225L79.5042 24.7465C79.6482 24.1945 79.6482 23.9545 79.5042 23.9545C79.2882 23.9545 78.5922 24.3625 77.8962 24.9385L77.5842 24.3865C78.9762 23.0185 80.6802 22.0585 81.3522 22.0585C81.9042 22.0585 81.9282 22.8505 81.6402 24.0265L80.0562 30.4585C79.8882 31.0585 79.9362 31.2505 80.1042 31.2505C80.3682 31.2505 81.1602 30.6745 81.7362 30.1465ZM94.2552 30.1465L94.6152 30.7465C93.1512 32.3785 91.7592 33.1225 91.0872 33.1225C90.4872 33.1225 90.2232 32.4985 90.6792 30.6025C91.0872 28.8505 91.5192 27.0985 91.9272 25.3465C92.2392 24.0025 92.0952 23.6905 91.7592 23.6665C90.7512 23.6665 88.0632 26.5465 86.9352 28.4905C86.6232 29.6905 86.2632 31.1785 85.9752 32.6425C85.3032 32.7385 84.5832 32.9305 84.0792 33.0985L83.9112 32.9305C84.5592 30.3625 85.2552 27.5305 85.8552 24.8665C86.0232 24.0745 85.9512 23.8825 85.8072 23.8825C85.5912 23.8825 84.8472 24.3865 84.2712 24.9625L83.9352 24.3625C85.3032 22.8985 86.7432 22.0345 87.4632 22.0345C88.0392 22.0345 88.1592 22.8505 87.7032 24.7705L87.2472 26.6905H87.2952C88.8312 24.5785 90.5112 23.2345 91.5432 22.6105C92.1672 22.2265 92.7192 22.0345 93.1992 22.0345C93.8232 22.0345 94.5192 22.4185 93.7992 25.5145C93.4392 27.1225 93.0312 28.7545 92.6712 30.3865C92.5032 31.0105 92.5512 31.2265 92.7192 31.2265C92.9352 31.2265 93.6072 30.8185 94.2552 30.1465ZM106.554 22.1545L106.746 22.6105C106.026 23.3785 105.378 23.6905 104.97 23.7625C104.802 23.7865 104.658 23.8105 104.394 23.8345C104.514 24.1705 104.586 24.5305 104.586 25.1305C104.586 26.7865 103.65 28.0345 102.81 28.7545C102.162 29.2825 101.058 29.8825 99.6183 30.1705C99.3543 30.3625 99.1863 30.6025 99.1623 30.8665C99.1623 31.2025 99.7383 31.6345 100.89 32.2345C103.242 33.4345 104.178 34.3945 104.178 35.4265C104.178 37.4425 100.77 38.9305 98.3943 38.9305C96.0183 38.9305 94.0023 37.7305 94.0503 36.2425C94.0743 35.1865 95.4903 34.1545 98.0583 32.8585C97.4823 32.4745 97.1463 31.9945 97.1703 31.6585C97.1703 31.2745 97.5543 30.8185 98.7303 30.1465C97.2663 29.8345 96.5463 28.8265 96.5463 27.2425C96.5463 25.6825 97.3383 24.1945 98.5863 23.2345C99.5703 22.4665 100.842 22.0345 101.73 22.0345C102.546 22.0345 103.266 22.2505 103.818 22.7065C105.234 22.6825 106.098 22.4185 106.554 22.1545ZM100.026 29.2105C101.25 29.2105 102.642 27.6985 102.642 25.1305C102.642 23.8345 102.138 22.8985 101.13 22.8985C100.434 22.8985 99.8343 23.4025 99.4263 24.0505C98.9463 24.8185 98.5863 25.8985 98.5863 27.1225C98.5863 28.4665 99.1863 29.2105 100.026 29.2105ZM99.4023 37.8985C101.178 37.8985 102.282 37.0825 102.282 36.1705C102.282 35.5465 101.682 34.9705 100.578 34.3225C99.7863 33.8425 99.1143 33.4825 98.7063 33.2905C97.2423 34.0105 96.2343 34.9465 96.2343 35.8345C96.2343 37.0105 97.7703 37.8985 99.4023 37.8985ZM108.179 33.1225C107.027 33.1225 105.707 32.2345 105.683 31.3465C105.683 30.9145 105.995 30.5305 106.427 30.2905C106.739 30.1225 106.907 30.1705 107.051 30.3625C107.723 31.3225 108.635 31.8745 109.451 31.8745C110.339 31.8745 110.939 31.2505 110.939 30.5305C110.939 29.9545 110.651 29.4505 109.499 28.5625C108.443 27.7705 107.363 26.8825 107.363 25.6105C107.363 24.8665 107.651 24.0745 108.659 23.2105C109.427 22.5625 110.579 22.0345 111.395 22.0345C112.475 22.0345 113.315 22.7545 113.315 23.4265C113.315 23.8585 113.075 24.2425 112.667 24.4825C112.427 24.6265 112.259 24.6025 112.115 24.3865C111.635 23.7625 111.011 23.2585 110.195 23.2585C109.523 23.2585 108.971 23.7385 108.971 24.5065C108.971 25.3225 109.667 25.9465 110.555 26.5945C111.971 27.6505 112.619 28.3705 112.619 29.4505C112.619 31.3225 110.147 33.1225 108.179 33.1225Z" fill="currentColor"/>
<path d="M163.94 26.7968C163.94 37.311 155.417 45.8344 144.903 45.8344C134.389 45.8344 125.865 37.311 125.865 26.7968C125.865 16.2826 134.389 7.75918 144.903 7.75918C149.312 7.75918 153.372 9.25841 156.599 11.775L156.599 11.7716C156.938 12.0621 157.51 11.6935 158.09 11.32C158.533 11.035 158.979 10.7471 159.33 10.7471L157.179 12.6387L156.579 13.1923C153.442 10.4975 149.363 8.86899 144.903 8.86899C135.002 8.86899 126.975 16.8955 126.975 26.7968C126.975 36.698 135.002 44.7246 144.903 44.7246C154.804 44.7246 162.831 36.698 162.831 26.7968C162.831 22.2609 161.146 18.1184 158.369 14.9608L158.393 14.9308C158.392 14.9307 158.392 14.9305 158.391 14.9303L160.611 12.1558C160.625 12.2838 160.534 12.7534 160.056 13.6071C159.514 14.5752 159.639 14.7353 159.731 14.8523C159.74 14.8642 159.749 14.8757 159.757 14.8876C159.758 14.8888 159.759 14.8899 159.759 14.8911C162.375 18.1515 163.94 22.2914 163.94 26.7968Z" fill="currentColor"/>
<path d="M151.135 24.6625C148.745 27.7786 141.787 28.8457 137.561 27.0102C141.932 31.6544 147.663 30.9942 149.982 30.0836C151.135 33.9679 146.055 38.8767 141.189 34.1387H137.134C142.939 46.9869 160.611 36.0595 151.135 24.6625Z" fill="currentColor"/>
<path d="M148.403 20.6501C137.646 28.2481 136.366 9.80807 148.403 15.1437C150.281 15.8199 150.025 14.3372 149.299 13.8632C135.64 4.94195 129.963 28.5542 144.86 25.8577C150.905 24.7636 160.369 12.2411 164.325 6.05177C161.721 8.74094 154.123 16.9792 148.403 20.6501Z" fill="currentColor"/>
<path d="M166.03 3.86908C165.28 4.10298 163.725 4.89498 163.001 5.28343C162.703 5.44181 164.111 5.41149 164.111 5.41149C164.111 5.41149 165.434 4.38704 165.392 4.55778C165.306 4.68584 164.751 5.45417 164.751 5.6676C164.751 5.88103 165.221 7.33233 165.349 7.24695C165.448 7.18128 165.896 5.11017 166.133 3.96448C166.146 3.90293 166.09 3.85035 166.03 3.86908Z" fill="currentColor"/>
</svg>
