<svg width="20" height="18" viewBox="0 0 20 18" fill="none" xmlns="http://www.w3.org/2000/svg">
<path fill-rule="evenodd" clip-rule="evenodd" d="M7.62439 1.55018C7.91242 0.618561 8.77934 -0.0122994 9.75439 0.000181925C10.7349 -0.00966892 11.6036 0.630633 11.8844 1.57018L12.5444 3.57018C12.8408 4.49581 13.7025 5.12289 14.6744 5.12018H16.7544C17.7492 5.08249 18.6495 5.70582 18.9643 6.65023C19.2791 7.59463 18.9328 8.63347 18.1144 9.20018L16.4044 10.4502C15.6162 11.0163 15.2846 12.0272 15.5844 12.9502L16.2444 14.9502C16.4712 15.6425 16.3487 16.4019 15.9157 16.9878C15.4827 17.5737 14.7928 17.9137 14.0644 17.9002C13.592 17.8966 13.1331 17.7425 12.7544 17.4602L11.1144 16.2102C10.3279 15.6365 9.2609 15.6365 8.47439 16.2102L6.75439 17.4602C6.37111 17.7686 5.89625 17.9409 5.40439 17.9502C4.67067 17.9563 3.98006 17.6042 3.55396 17.0069C3.12785 16.4095 3.01978 15.642 3.26439 14.9502L3.92439 12.9502C4.24237 12.03 3.92662 11.0098 3.14439 10.4302L1.43439 9.18018C0.641757 8.61152 0.308295 7.59527 0.609919 6.66755C0.911542 5.73983 1.77889 5.11399 2.75439 5.12018H4.83439C5.81172 5.12014 6.67514 4.48372 6.96439 3.55018L7.62439 1.55018ZM10.2844 2.07018C10.2229 1.83072 10.0013 1.66766 9.75439 1.68018C9.49522 1.67131 9.26912 1.85474 9.22439 2.11018L8.56439 4.11018C8.03986 5.7265 6.53368 6.8208 4.83439 6.82018H2.71439C2.47875 6.82697 2.27259 6.98059 2.19871 7.20446C2.12484 7.42832 2.19907 7.67448 2.38439 7.82018L4.09439 9.07018C5.47367 10.0678 6.05146 11.8416 5.52439 13.4602L4.86439 15.4602C4.79957 15.6244 4.82617 15.8107 4.93439 15.9502C5.04661 16.1117 5.22786 16.2116 5.42439 16.2202C5.54441 16.2166 5.6601 16.1745 5.75439 16.1002L7.44439 14.8502C8.82181 13.8494 10.687 13.8494 12.0644 14.8502L13.7344 16.0402C13.8287 16.1145 13.9444 16.1566 14.0644 16.1602C14.252 16.148 14.4244 16.0526 14.5344 15.9002C14.6426 15.7607 14.6692 15.5744 14.6044 15.4102L13.9444 13.4102C13.4173 11.7916 13.9951 10.0178 15.3744 9.02018L17.0844 7.78018C17.2697 7.63448 17.3439 7.38832 17.2701 7.16446C17.1962 6.94059 16.99 6.78697 16.7544 6.78018H14.6744C12.9751 6.7808 11.4689 5.6865 10.9444 4.07018L10.2844 2.07018Z" fill="#5C0632"/>
</svg>
